{"title":"masterchef.australia.s05e64.pdtv.x264-RWN","uid":8865512,"size":357243102,"categoryP":"video","categoryS":"tv_shows","magnet":"?xt=urn:btih:c6af0092cade61f018edb9e846710e618b315beb&amp;dn=masterchef.australia.s05e64.pdtv.x264-RWN&amp;tr=udp%3A%2F%2Ftracker.openbittorrent.com%3A80&amp;tr=udp%3A%2F%2Fopen.demonii.com%3A1337&amp;tr=udp%3A%2F%2Ftracker.coppersurfer.tk%3A6969&amp;tr=udp%3A%2F%2Fexodus.desync.com%3A6969","seeders":0,"leechers":1,"uploader":"rawenkoye","files":1,"time":1377898185,"description":"\n\n\n      Format profile : Base Media\n      Codec ID : isom\n      File size : 341 MiB\n      Duration : 45mn 53s\n      Overall bit rate mode : Variable\n      Overall bit rate : 1 038 Kbps\n      Encoded date : UTC 2013-08-30 17:23:36\n      Tagged date : UTC 2013-08-30 17:23:36\n      Writing application : vlc 2.0.7 stream output\n   Video #2\n      ID : 2\n      Format : AVC\n      Format/Info : Advanced Video Codec\n      Format profile : &lt;a class=&quot;__cf_email__&quot; href=&quot;/cdn-cgi/l/email-protection&quot; data-cfemail=&quot;2961404e4169651a0719&quot;&gt;[email&amp;#160;protected]&lt;/a&gt;&lt;script cf-hash='f9e31' type=&quot;text/javascript&quot;&gt;\n/* &lt;![CDATA[ */!function(){try{var t=&quot;currentScript&quot;in document?document.currentScript:function(){for(var t=document.getElementsByTagName(&quot;script&quot;),e=t.length;e--;)if(t[e].getAttribute(&quot;cf-hash&quot;))return t[e]}();if(t&amp;&amp;t.previousSibling){var e,r,n,i,c=t.previousSibling,a=c.getAttribute(&quot;data-cfemail&quot;);if(a){for(e=&quot;&quot;,r=parseInt(a.substr(0,2),16),n=2;a.length-n;n+=2)i=parseInt(a.substr(n,2),16)^r,e+=String.fromCharCode(i);e=document.createTextNode(e),c.parentNode.replaceChild(e,c)}}}catch(u){}}();/* ]]&gt; */&lt;/script&gt;\n      Format settings, CABAC : Yes\n      Format settings, ReFrames : 4 frames\n      Codec ID : avc1\n      Codec ID/Info : Advanced Video Coding\n      Duration : 45mn 53s\n      Source duration : 45mn 53s\n      Bit rate : 806 Kbps\n      Width : 640 pixels\n      Height : 352 pixels\n      Display aspect ratio : 16:9\n      Frame rate : 25.000 fps\n      Color space : YUV\n      Chroma subsampling : 4:2:0\n      Bit depth : 8 bits\n      Scan type : Progressive\n      Bits/(Pixel*Frame) : 0.143\n      Stream size : 265 MiB (78%)\n      Source stream size : 265 MiB (78%)\n      Language : English\n      Encoded date : UTC 2013-08-30 17:23:36\n      Tagged date : UTC 2013-08-30 17:23:36\n      mdhd_Duration : 2753120\n   Audio #1\n      ID : 1\n      Format : MPEG Audio\n      Format version : Version 1\n      Format profile : Layer 3\n      Mode : Joint stereo\n      Codec ID : 6B\n      Duration : 45mn 53s\n      Source duration : 45mn 53s\n      Bit rate mode : Variable\n      Bit rate : 226 Kbps\n      Minimum bit rate : 32.0 Kbps\n      Maximum bit rate : 320 Kbps\n      Channel(s) : 2 channels\n      Sampling rate : 48.0 KHz\n      Compression mode : Lossy\n      Stream size : 74.2 MiB (22%)\n      Source stream size : 74.2 MiB (22%)\n      Writing library : LAME3.98r\n      Encoding settings : -m j -V 0 -q 0 -lowpass 19.5 --vbr-new -b 32\n      Language : English\n      Encoded date : UTC 2013-08-30 17:23:36\n      Tagged date : UTC 2013-08-30 17:23:36\n      mdhd_Duration : 2753040","torrent":{"xt":"urn:btih:c6af0092cade61f018edb9e846710e618b315beb","amp;dn":"masterchef.australia.s05e64.pdtv.x264-RWN","amp;tr":["udp%3A%2F%2Ftracker.openbittorrent.com%3A80","udp%3A%2F%2Fopen.demonii.com%3A1337","udp%3A%2F%2Ftracker.coppersurfer.tk%3A6969","udp%3A%2F%2Fexodus.desync.com%3A6969"],"infoHash":"c6af0092cade61f018edb9e846710e618b315beb","infoHashBuffer":{"type":"Buffer","data":[198,175,0,146,202,222,97,240,24,237,185,232,70,113,14,97,139,49,91,235]},"announce":[],"urlList":[]}}